<svg width="166" height="49" viewBox="0 0 166 49" fill="none" xmlns="http://www.w3.org/2000/svg">
<g clip-path="url(#clip0_1836_3550)">
<path fill-rule="evenodd" clip-rule="evenodd" d="M0 14.13V14.253L27.95 27.383L56 14.209V14.176L27.95 1L0 14.13ZM10.077 14.192L27.95 5.795L45.827 14.192L27.95 22.588L10.077 14.192ZM27.95 32.483L0 19.55V24.334L27.95 37.298L56 24.289V19.505L27.95 32.483ZM27.95 42.186L0 29.25V34.033L27.95 47L56 33.99V29.206L27.95 42.186Z" fill="white"/>
<mask id="mask0_1836_3550" style="mask-type:luminance" maskUnits="userSpaceOnUse" x="72" y="0" width="94" height="49">
<path d="M72.0137 0.0300293H165.974V48.32H72.0147L72.0137 0.0300293Z" fill="black"/>
</mask>
<g mask="url(#mask0_1836_3550)">
<path fill-rule="evenodd" clip-rule="evenodd" d="M159.561 24.1521C159.577 22.0868 158.804 20.0933 157.4 18.5791C156.739 17.8709 155.943 17.302 155.06 16.9061C154.164 16.5041 153.192 16.2992 152.21 16.3051C151.2 16.3051 150.249 16.5051 149.358 16.9061C148.474 17.302 147.678 17.8708 147.018 18.5791C145.613 20.0938 144.841 22.0876 144.858 24.1531C144.841 26.2181 145.614 28.2116 147.018 29.7261C147.678 30.4339 148.474 31.0024 149.358 31.3981C150.254 31.8004 151.226 32.0057 152.209 32.0001C153.219 32.0001 154.169 31.8001 155.061 31.3981C155.944 31.0022 156.739 30.4338 157.4 29.7261C158.804 28.2114 159.578 26.2175 159.561 24.1521ZM165.976 24.1521C165.976 26.0841 165.619 27.8751 164.906 29.5251C164.221 31.1336 163.221 32.5889 161.966 33.8051C160.719 35.0101 159.256 35.9611 157.578 36.6591C155.9 37.3581 154.11 37.7071 152.209 37.7071C150.309 37.7071 148.526 37.3581 146.863 36.6591C145.238 35.986 143.756 35.01 142.497 33.7831C141.244 32.5561 140.245 31.0942 139.557 29.4811C138.844 27.8311 138.487 26.0551 138.487 24.1521C138.487 22.2791 138.851 20.5181 139.579 18.8681C140.283 17.2518 141.288 15.7841 142.541 14.5431C143.796 13.3044 145.279 12.3204 146.908 11.6451C148.586 10.9434 150.389 10.587 152.209 10.5971C154.11 10.5971 155.899 10.9471 157.578 11.6451C159.256 12.3431 160.718 13.2951 161.966 14.4991C163.214 15.7031 164.194 17.1371 164.906 18.8011C165.619 20.4661 165.976 22.2501 165.976 24.1521ZM136.259 36.9051C135.709 37.1582 135.134 37.3526 134.544 37.4851C133.906 37.6331 133.244 37.7071 132.562 37.7071C131.635 37.7104 130.713 37.5828 129.822 37.3281C128.976 37.0921 128.193 36.6736 127.527 36.1021C126.874 35.5371 126.354 34.8021 125.967 33.8951C125.582 32.9881 125.389 31.8951 125.389 30.6181V0.0290527H131.938V29.5031C131.938 30.5731 132.153 31.3091 132.584 31.7101C133.014 32.1111 133.527 32.3121 134.121 32.3121C134.863 32.3121 135.576 32.0891 136.259 31.6431V36.9051ZM122.493 11.2201L110.909 41.8541C110.048 44.1431 108.919 45.7931 107.523 46.8041C106.127 47.8141 104.463 48.3191 102.533 48.3191C102.236 48.3191 101.91 48.2971 101.553 48.2531C101.207 48.2104 100.864 48.1433 100.528 48.0521L98.3896 42.0771C98.8902 42.3131 99.4127 42.4997 99.9496 42.6341C100.484 42.7681 100.989 42.8351 101.464 42.8351C102.474 42.8351 103.394 42.6051 104.226 42.1441C105.058 41.6841 105.696 40.8291 106.142 39.5801L107.033 36.9941L97.0976 11.2211H104.093L110.018 27.8091L115.588 11.2211L122.493 11.2201ZM95.5386 7.34205H78.7866V15.6361H95.3156V21.2541H78.7856V37.0381H72.0156V1.41205H95.5396L95.5386 7.34205Z" fill="white"/>
</g>
</g>
<defs>
<clipPath id="clip0_1836_3550">
<rect width="166" height="49" fill="white"/>
</clipPath>
</defs>
</svg>
